<svg width="16" height="16" viewBox="0 0 16 16" fill="none" xmlns="http://www.w3.org/2000/svg">
<path d="M2.41667 4.53462C2.97097 5.12934 3.27165 5.38838 3.79079 5.70126C4.91298 4.86565 6.45055 4.77805 7.58333 5.57514C7.67897 4.84621 7.58253 4.21666 7.34613 3.70128C6.75862 2.42042 5.30671 1.84474 3.79079 2.20128C1.91667 2.53461 0.5 4.20128 0.5 5.70126C1.30855 4.95766 1.73056 4.70168 2.41667 4.53462Z" fill="url(#paint0_linear_115_65)"/>
<path d="M6.83333 14.9059C7.17499 15.0214 7.64143 15.1372 7.75 15.1179C13.1667 14.1569 15.3333 8.95128 12.25 5.70126C10.7673 6.55467 9.98012 6.69127 8 5.81439C7.91872 5.77839 7.83543 5.74069 7.75 5.70126C10.5833 8.53461 9.41667 12.9513 6.83333 14.9059Z" fill="url(#paint1_radial_115_65)"/>
<path d="M12.25 5.70126C12.8911 5.27856 13.1751 5.02108 13.5833 4.53462C14.5154 4.78485 14.8333 4.95128 15.5 5.70126C15.4167 4.20128 14 2.53462 12 2.20128C10.5285 1.95604 9.0955 2.50514 8.40569 3.70128C8.07979 4.2664 7.91979 4.97594 8 5.81439C9.98012 6.69127 10.7673 6.55467 12.25 5.70126Z" fill="url(#paint2_linear_115_65)"/>
<path d="M3.25003 6.20126C1.15571 8.83851 2.23814 13.3529 6.83333 14.9059C9.41667 12.9513 10.5833 8.53461 7.75 5.70126C7.69552 5.657 7.63993 5.61496 7.58333 5.57514C6.45055 4.77805 4.91298 4.86565 3.79079 5.70126C3.5967 5.84579 3.41503 6.01269 3.25003 6.20126Z" fill="url(#paint3_radial_115_65)"/>
<path d="M7.75 5.70126C7.83543 5.74069 7.91872 5.77839 8 5.81439C7.91979 4.97594 8.07979 4.2664 8.40569 3.70128C8.6698 3.13677 8.75 3.11793 9.16667 2.45126C9.25 1.70127 8.16667 1.20126 7.75 1.70127C7.33333 2.36793 7.20947 2.89088 7.34613 3.70128C7.58253 4.21666 7.67897 4.84621 7.58333 5.57514C7.63993 5.61496 7.69552 5.657 7.75 5.70126Z" fill="url(#paint4_radial_115_65)"/>
<path d="M7.75 5.70126C10.5833 8.53461 9.41667 12.9513 6.83333 14.9059M7.75 5.70126C7.83543 5.74069 7.91872 5.77839 8 5.81439M7.75 5.70126C7.69552 5.657 7.63993 5.61496 7.58333 5.57514M6.83333 14.9059C7.17499 15.0214 7.64143 15.1372 7.75 15.1179C13.1667 14.1569 15.3333 8.95128 12.25 5.70126M6.83333 14.9059C2.23814 13.3529 1.15571 8.83851 3.25003 6.20126C3.41503 6.01269 3.5967 5.84579 3.79079 5.70126M12.25 5.70126C12.8911 5.27856 13.1751 5.02108 13.5833 4.53462C14.5154 4.78485 14.8333 4.95128 15.5 5.70126C15.4167 4.20128 14 2.53462 12 2.20128C10.5285 1.95604 9.0955 2.50514 8.40569 3.70128M12.25 5.70126C10.7673 6.55467 9.98012 6.69127 8 5.81439M8 5.81439C7.91979 4.97594 8.07979 4.2664 8.40569 3.70128M3.79079 5.70126C3.27165 5.38838 2.97097 5.12934 2.41667 4.53462C1.73056 4.70168 1.30855 4.95766 0.5 5.70126C0.5 4.20128 1.91667 2.53461 3.79079 2.20128C5.30671 1.84474 6.75862 2.42042 7.34613 3.70128M3.79079 5.70126C4.91298 4.86565 6.45055 4.77805 7.58333 5.57514M7.58333 5.57514C7.67897 4.84621 7.58253 4.21666 7.34613 3.70128M7.34613 3.70128C7.20947 2.89088 7.33333 2.36793 7.75 1.70127C8.16667 1.20126 9.25 1.70127 9.16667 2.45126C8.75 3.11793 8.6698 3.13677 8.40569 3.70128" stroke="#001920" stroke-width="0.7"/>
<path d="M7.41663 5.1176C7.08329 4.53426 5.58329 2.95093 3.91663 3.28426C6.08329 3.8676 6.41663 4.8676 6.74996 4.95093C6.83329 5.20093 7.41663 5.20093 7.41663 5.1176Z" fill="#001920"/>
<path d="M8.24996 5.6176C8.66663 4.53426 10.25 3.28426 11.9166 3.45093C10.4166 3.95093 9.49996 4.78426 8.74996 5.78426C8.62496 5.95093 8.20319 5.73919 8.24996 5.6176Z" fill="#001920"/>
<path d="M7.33333 15.0346C4.66666 12.3679 4.58333 7.45125 6.58333 6.36792C4.83333 8.78459 5.99137 12.6179 7.33333 15.0346Z" fill="url(#paint5_linear_115_65)" style="mix-blend-mode:multiply"/>
<path d="M8.75024 6.4521C10.0002 6.9521 11.0836 6.78544 12.1669 6.11877C12.1669 6.11877 12.353 6.28848 12.4169 6.36876C12.4169 6.36876 11.4461 7.83439 9.25024 7.28543C9.16691 7.11877 9.00024 6.7021 8.75024 6.4521Z" fill="url(#paint6_linear_115_65)" style="mix-blend-mode:multiply"/>
<path d="M3.78019 5.30171C3.25039 4.94572 2.98729 4.67217 2.52686 4.16504L3.08352 4.20171C3.25398 4.379 3.50019 4.61837 4.41686 4.96837C4.24921 5.02843 4.00106 5.15858 3.78019 5.30171Z" fill="black" fill-opacity="0.2"/>
<path d="M13.0001 4.11755L13.4651 4.15922C12.7501 5.20089 11.2501 6.03422 10.2501 6.07589C9.75205 6.08319 9.41478 5.99606 8.76672 5.76755C10.3205 6.00139 11.2229 5.79072 13.0001 4.11755Z" fill="black" fill-opacity="0.2"/>
<path d="M5.08336 2.45774C6.08336 2.61774 6.83336 3.20107 7.09169 3.95107C6.00002 2.45774 3.33335 2.36774 1.65002 3.7844C2.58335 2.7844 3.75002 2.36774 5.08336 2.45774Z" fill="url(#paint7_linear_115_65)"/>
<path d="M14.4096 3.9518C12.4163 2.2018 9.58295 2.7018 8.56628 4.11847C9.08295 3.03514 10.1165 2.47681 11.333 2.47681C12.6663 2.53514 13.5829 3.03514 14.4096 3.9518Z" fill="url(#paint8_linear_115_65)"/>
<path d="M11.7502 6.34465C13.8336 8.61798 12.5836 12.7846 8.75024 14.5346C11.5836 13.618 13.3336 11.4513 13.3336 9.11798C13.3336 7.95131 12.8336 6.86798 12.1836 6.11798C12.1357 6.15042 12.0655 6.18865 11.7502 6.34465Z" fill="white" fill-opacity="0.5" style="mix-blend-mode:soft-light"/>
<path d="M6.58346 14.4518L6.75012 14.5351C9.25012 12.4518 9.58346 9.28509 8.41679 7.11843C7.58346 5.70176 6.91679 5.45176 5.91679 5.36843C4.99952 5.29199 3.83346 5.7851 3.25012 6.7851C6.41679 2.95176 11.2501 9.11843 6.58346 14.4518Z" fill="white" fill-opacity="0.5" style="mix-blend-mode:soft-light"/>
<defs>
<linearGradient id="paint0_linear_115_65" x1="7.33333" y1="4.86793" x2="0.833333" y2="4.86793" gradientUnits="userSpaceOnUse">
<stop stop-color="#187238"/>
<stop offset="1" stop-color="#79AA3C"/>
</linearGradient>
<radialGradient id="paint1_radial_115_65" cx="0" cy="0" r="1" gradientUnits="userSpaceOnUse" gradientTransform="translate(8.08333 13.9513) rotate(-66.3369) scale(8.0975 8.91791)">
<stop offset="0.105039" stop-color="#C32731"/>
<stop offset="0.690039" stop-color="#FD7752"/>
<stop offset="1" stop-color="#FBD099"/>
</radialGradient>
<linearGradient id="paint2_linear_115_65" x1="8.08333" y1="5.61793" x2="14.5" y2="3.86793" gradientUnits="userSpaceOnUse">
<stop stop-color="#187238"/>
<stop offset="1" stop-color="#79AA3C"/>
</linearGradient>
<radialGradient id="paint3_radial_115_65" cx="0" cy="0" r="1" gradientUnits="userSpaceOnUse" gradientTransform="translate(5.75 14.1179) rotate(-62.0378) scale(7.64217 8.41645)">
<stop offset="0.15748" stop-color="#C32731"/>
<stop offset="0.72748" stop-color="#FD7752"/>
<stop offset="1" stop-color="#FBD099"/>
</radialGradient>
<radialGradient id="paint4_radial_115_65" cx="0" cy="0" r="1" gradientUnits="userSpaceOnUse" gradientTransform="translate(8.83333 1.36793) rotate(109.983) scale(2.92617 3.22265)">
<stop offset="0.37238" stop-color="#F7A26C"/>
<stop offset="0.37248" stop-color="#FFCBAA"/>
<stop offset="0.420039" stop-color="#FFCBAA"/>
<stop offset="0.420139" stop-color="#9A4D2F"/>
<stop offset="1" stop-color="#4C2D26"/>
</radialGradient>
<linearGradient id="paint5_linear_115_65" x1="6.26383" y1="6.36792" x2="6.26383" y2="15.0346" gradientUnits="userSpaceOnUse">
<stop stop-color="#F8DFC8"/>
<stop offset="0.500039" stop-color="#DCB4DB"/>
<stop offset="0.900039" stop-color="#DCB4DB" stop-opacity="0"/>
</linearGradient>
<linearGradient id="paint6_linear_115_65" x1="11.8197" y1="6.61876" x2="11.8197" y2="15.2854" gradientUnits="userSpaceOnUse">
<stop stop-color="#F8DFC8"/>
<stop offset="0.500039" stop-color="#DCB4DB"/>
<stop offset="0.900039" stop-color="#DCB4DB" stop-opacity="0"/>
</linearGradient>
<linearGradient id="paint7_linear_115_65" x1="1.58335" y1="4.0344" x2="7.08336" y2="4.0344" gradientUnits="userSpaceOnUse">
<stop stop-color="#FFFA85" stop-opacity="0"/>
<stop offset="0.50248" stop-color="#FFFA85" stop-opacity="0.5"/>
<stop offset="1" stop-color="#FFFA85" stop-opacity="0"/>
</linearGradient>
<linearGradient id="paint8_linear_115_65" x1="8.56628" y1="3.29764" x2="14.4096" y2="3.29764" gradientUnits="userSpaceOnUse">
<stop stop-color="#FFFA85" stop-opacity="0"/>
<stop offset="0.50248" stop-color="#FFFA85" stop-opacity="0.5"/>
<stop offset="1" stop-color="#FFFA85" stop-opacity="0"/>
</linearGradient>
</defs>
</svg>
