<svg width="16" height="16" viewBox="0 0 16 16" fill="none" xmlns="http://www.w3.org/2000/svg">
<rect width="16" height="16" fill="url(#paint0_linear_3_51)"/>
<path d="M4.40556 5.22538C4.81204 5.66152 5.03254 5.85148 5.41325 6.08092C6.23619 5.46815 7.36374 5.4039 8.19444 5.98843C8.26458 5.45388 8.19385 4.99221 8.02049 4.61427C7.58965 3.67497 6.52492 3.25281 5.41325 3.51428C4.03889 3.75872 3 4.98094 3 6.08092C3.59293 5.53561 3.90241 5.3479 4.40556 5.22538Z" fill="url(#paint1_linear_3_51)"/>
<path d="M7.64444 12.831C7.89499 12.9157 8.23705 13.0006 8.31667 12.9865C12.2889 12.2817 13.8778 8.46427 11.6167 6.08092C10.5293 6.70676 9.95209 6.80693 8.5 6.16388C8.44039 6.13749 8.37932 6.10984 8.31667 6.08092C10.3944 8.15872 9.53889 11.3976 7.64444 12.831Z" fill="url(#paint2_radial_3_51)"/>
<path d="M11.6167 6.08092C12.0868 5.77094 12.2951 5.58213 12.5944 5.22538C13.2779 5.40889 13.5111 5.53094 14 6.08092C13.9389 4.98094 12.9 3.75872 11.4333 3.51428C10.3543 3.33443 9.30337 3.7371 8.79751 4.61427C8.55851 5.02869 8.44118 5.54903 8.5 6.16388C9.95209 6.80693 10.5293 6.70676 11.6167 6.08092Z" fill="url(#paint3_linear_3_51)"/>
<path d="M5.01669 6.44759C3.48085 8.38158 4.27464 11.6921 7.64444 12.831C9.53889 11.3976 10.3944 8.15872 8.31667 6.08092C8.27672 6.04847 8.23595 6.01764 8.19444 5.98843C7.36374 5.4039 6.23619 5.46815 5.41325 6.08092C5.27091 6.18691 5.13769 6.30931 5.01669 6.44759Z" fill="url(#paint4_radial_3_51)"/>
<path d="M8.31667 6.08092C8.37932 6.10984 8.44039 6.13749 8.5 6.16388C8.44118 5.54903 8.55851 5.02869 8.79751 4.61427C8.99119 4.2003 9.05 4.18648 9.35556 3.69759C9.41667 3.1476 8.62222 2.78093 8.31667 3.1476C8.01111 3.63648 7.92028 4.01998 8.02049 4.61427C8.19385 4.99221 8.26458 5.45388 8.19444 5.98843C8.23595 6.01764 8.27672 6.04847 8.31667 6.08092Z" fill="url(#paint5_radial_3_51)"/>
<path d="M8.31667 6.08093C10.3944 8.15872 9.53889 11.3976 7.64444 12.831M8.31667 6.08093C8.37932 6.10984 8.44039 6.13749 8.5 6.16388M8.31667 6.08093C8.27672 6.04847 8.23595 6.01764 8.19444 5.98843M7.64444 12.831C7.89499 12.9157 8.23705 13.0006 8.31667 12.9865C12.2889 12.2817 13.8778 8.46427 11.6167 6.08093M7.64444 12.831C4.27464 11.6921 3.48085 8.38158 5.01669 6.44759C5.13769 6.30931 5.27091 6.18691 5.41325 6.08093M11.6167 6.08093C12.0868 5.77094 12.2951 5.58213 12.5944 5.22539C13.2779 5.40889 13.5111 5.53094 14 6.08093C13.9389 4.98094 12.9 3.75872 11.4333 3.51428C10.3543 3.33443 9.30337 3.7371 8.79751 4.61427M11.6167 6.08093C10.5293 6.70676 9.95209 6.80693 8.5 6.16388M8.5 6.16388C8.44118 5.54903 8.55851 5.02869 8.79751 4.61427M5.41325 6.08093C5.03254 5.85148 4.81204 5.66152 4.40556 5.22539C3.90241 5.3479 3.59293 5.53561 3 6.08093C3 4.98094 4.03889 3.75872 5.41325 3.51428C6.52492 3.25281 7.58965 3.67497 8.0205 4.61427M5.41325 6.08093C6.23619 5.46815 7.36374 5.4039 8.19444 5.98843M8.19444 5.98843C8.26458 5.45388 8.19385 4.99221 8.0205 4.61427M8.0205 4.61427C7.92028 4.01998 8.01111 3.63648 8.31667 3.1476C8.62222 2.78093 9.41667 3.1476 9.35556 3.69759C9.05 4.18648 8.99119 4.2003 8.79751 4.61427" stroke="#001920" stroke-width="0.5"/>
<path d="M8.07216 5.65292C7.82772 5.22514 6.72772 4.06403 5.50549 4.30848C7.09438 4.73625 7.33883 5.46959 7.58327 5.5307C7.64438 5.71403 8.07216 5.71403 8.07216 5.65292Z" fill="#001920"/>
<path d="M8.68327 6.01959C8.98883 5.22514 10.1499 4.30848 11.3722 4.4307C10.2722 4.79736 9.59994 5.40848 9.04994 6.14181C8.95827 6.26403 8.64897 6.10876 8.68327 6.01959Z" fill="#001920"/>
<path d="M8.01098 12.9254C6.05542 10.9698 5.99431 7.36427 7.46098 6.56982C6.17765 8.34205 7.02687 11.1532 8.01098 12.9254Z" fill="url(#paint6_linear_3_51)" style="mix-blend-mode:multiply"/>
<path d="M9.05005 6.63152C9.96672 6.99819 10.7612 6.87597 11.5556 6.38708C11.5556 6.38708 11.692 6.51154 11.7389 6.57041C11.7389 6.57041 11.027 7.64521 9.41672 7.24263C9.3556 7.12041 9.23338 6.81486 9.05005 6.63152Z" fill="url(#paint7_linear_3_51)" style="mix-blend-mode:multiply"/>
<path d="M5.40544 5.7879C5.01692 5.52685 4.82398 5.32624 4.48633 4.95435L4.89455 4.98123C5.01955 5.11125 5.20011 5.28679 5.87233 5.54346C5.74939 5.5875 5.56741 5.68294 5.40544 5.7879Z" fill="black" fill-opacity="0.2"/>
<path d="M12.1666 4.91956L12.5076 4.95011C11.9832 5.714 10.8832 6.32511 10.1499 6.35567C9.78471 6.36102 9.53738 6.29712 9.06213 6.12956C10.2016 6.30104 10.8634 6.14655 12.1666 4.91956Z" fill="black" fill-opacity="0.2"/>
<path d="M6.36116 3.70236C7.09449 3.81969 7.64449 4.24747 7.83394 4.79746C7.03338 3.70236 5.07783 3.63636 3.84338 4.67524C4.52783 3.94191 5.38338 3.63636 6.36116 3.70236Z" fill="url(#paint8_linear_3_51)"/>
<path d="M13.2005 4.79797C11.7387 3.51464 9.66096 3.88131 8.91541 4.9202C9.29429 4.12575 10.0523 3.71631 10.9443 3.71631C11.9221 3.75908 12.5943 4.12575 13.2005 4.79797Z" fill="url(#paint9_linear_3_51)"/>
<path d="M11.25 6.55276C12.7778 8.21987 11.8612 11.2754 9.05005 12.5588C11.1278 11.8865 12.4112 10.2976 12.4112 8.58654C12.4112 7.73098 12.0445 6.93654 11.5678 6.38654C11.5327 6.41033 11.4812 6.43836 11.25 6.55276Z" fill="white" fill-opacity="0.5" style="mix-blend-mode:soft-light"/>
<path d="M7.46117 12.4979L7.58339 12.5591C9.41672 11.0313 9.66117 8.70905 8.80561 7.12017C8.1945 6.08128 7.70561 5.89794 6.97228 5.83683C6.29962 5.78078 5.4445 6.14239 5.01672 6.87572C7.33895 4.06461 10.8834 8.58683 7.46117 12.4979Z" fill="white" fill-opacity="0.5" style="mix-blend-mode:soft-light"/>
<defs>
<linearGradient id="paint0_linear_3_51" x1="4.17498" y1="-2.27256e-07" x2="13" y2="15.3107" gradientUnits="userSpaceOnUse">
<stop offset="0.500039" stop-color="#001920"/>
<stop offset="0.500139" stop-color="#FBD099"/>
<stop offset="1" stop-color="#FD7752"/>
</linearGradient>
<linearGradient id="paint1_linear_3_51" x1="8.01111" y1="5.46982" x2="3.24444" y2="5.46982" gradientUnits="userSpaceOnUse">
<stop stop-color="#187238"/>
<stop offset="1" stop-color="#79AA3C"/>
</linearGradient>
<radialGradient id="paint2_radial_3_51" cx="0" cy="0" r="1" gradientUnits="userSpaceOnUse" gradientTransform="translate(8.56111 12.1309) rotate(-66.3369) scale(5.93816 6.5398)">
<stop offset="0.105039" stop-color="#C32731"/>
<stop offset="0.690039" stop-color="#FD7752"/>
<stop offset="1" stop-color="#FBD099"/>
</radialGradient>
<linearGradient id="paint3_linear_3_51" x1="8.56111" y1="6.01981" x2="13.2667" y2="4.73648" gradientUnits="userSpaceOnUse">
<stop stop-color="#187238"/>
<stop offset="1" stop-color="#79AA3C"/>
</linearGradient>
<radialGradient id="paint4_radial_3_51" cx="0" cy="0" r="1" gradientUnits="userSpaceOnUse" gradientTransform="translate(6.85 12.2531) rotate(-62.0378) scale(5.60426 6.17206)">
<stop offset="0.15748" stop-color="#C32731"/>
<stop offset="0.72748" stop-color="#FD7752"/>
<stop offset="1" stop-color="#FBD099"/>
</radialGradient>
<radialGradient id="paint5_radial_3_51" cx="0" cy="0" r="1" gradientUnits="userSpaceOnUse" gradientTransform="translate(9.11111 2.90315) rotate(109.983) scale(2.14586 2.36327)">
<stop offset="0.37238" stop-color="#F7A26C"/>
<stop offset="0.37248" stop-color="#FFCBAA"/>
<stop offset="0.420039" stop-color="#FFCBAA"/>
<stop offset="0.420139" stop-color="#9A4D2F"/>
<stop offset="1" stop-color="#4C2D26"/>
</radialGradient>
<linearGradient id="paint6_linear_3_51" x1="7.22668" y1="6.56982" x2="7.22668" y2="12.9254" gradientUnits="userSpaceOnUse">
<stop stop-color="#F8DFC8"/>
<stop offset="0.500039" stop-color="#DCB4DB"/>
<stop offset="0.900039" stop-color="#DCB4DB" stop-opacity="0"/>
</linearGradient>
<linearGradient id="paint7_linear_3_51" x1="11.301" y1="6.75374" x2="11.301" y2="13.1093" gradientUnits="userSpaceOnUse">
<stop stop-color="#F8DFC8"/>
<stop offset="0.500039" stop-color="#DCB4DB"/>
<stop offset="0.900039" stop-color="#DCB4DB" stop-opacity="0"/>
</linearGradient>
<linearGradient id="paint8_linear_3_51" x1="3.79449" y1="4.85858" x2="7.82783" y2="4.85858" gradientUnits="userSpaceOnUse">
<stop stop-color="#FFFA85" stop-opacity="0"/>
<stop offset="0.50248" stop-color="#FFFA85" stop-opacity="0.5"/>
<stop offset="1" stop-color="#FFFA85" stop-opacity="0"/>
</linearGradient>
<linearGradient id="paint9_linear_3_51" x1="8.91541" y1="4.31825" x2="13.2005" y2="4.31825" gradientUnits="userSpaceOnUse">
<stop stop-color="#FFFA85" stop-opacity="0"/>
<stop offset="0.50248" stop-color="#FFFA85" stop-opacity="0.5"/>
<stop offset="1" stop-color="#FFFA85" stop-opacity="0"/>
</linearGradient>
</defs>
</svg>
