<svg width="133" height="81" viewBox="0 0 133 81" fill="none" xmlns="http://www.w3.org/2000/svg">
<path d="M10.8133 42.7202C11.3613 45.0968 11.754 46.2208 12.6334 47.8124C16.8024 47.3247 20.9285 49.4035 22.6759 53.1736C24.0178 51.4232 24.7116 49.6429 24.8704 47.9493C25.2653 43.7403 22.3567 40.0668 17.8834 38.7192C12.5143 36.7741 6.33367 38.9792 4.0837 42.8762C7.29977 42.1571 8.78017 42.1251 10.8133 42.7202Z" fill="#283D44"/>
<path d="M6.73116 76.2907C7.4456 77.1032 8.48377 78.1037 8.79473 78.2165C24.3092 83.8447 37.7468 73.5701 34.6111 60.5012C29.4787 60.4944 27.2288 59.6686 23.3996 54.4202C23.2424 54.2047 23.0826 53.9818 22.9198 53.7512C26.0309 65.3625 16.3749 75.0873 6.73116 76.2907Z" fill="#283D44"/>
<path d="M34.6111 60.5012C36.9108 60.3647 38.0348 60.1217 39.8252 59.4702C41.8714 61.5184 42.4478 62.4277 43.0548 65.3762C45.0883 61.3542 43.9077 54.8991 39.2115 51.033C35.7564 48.1887 31.2097 47.4657 27.6233 49.5387C25.9289 50.518 24.4488 52.1215 23.3996 54.4202C27.2288 59.6686 29.4787 60.4944 34.6111 60.5012Z" fill="#283D44"/>
<path d="M10.4785 48.3003C1.0814 52.0106 -2.87794 65.363 6.73116 76.2907C16.3749 75.0873 26.0309 65.3625 22.9198 53.7512C22.8446 53.5545 22.7632 53.3619 22.6759 53.1736C20.9285 49.4035 16.8024 47.3247 12.6334 47.8124C11.9124 47.8968 11.19 48.0579 10.4785 48.3003Z" fill="#283D44"/>
<path d="M22.9198 53.7512C23.0826 53.9818 23.2424 54.2047 23.3996 54.4202C24.4488 52.1215 25.9289 50.518 27.6233 49.5387C29.1562 48.4682 29.3928 48.5396 31.4754 47.4325C32.8169 45.609 30.7523 42.6849 28.9198 43.359C26.8372 44.466 25.731 45.6389 24.8704 47.9493C24.7116 49.6429 24.0178 51.4232 22.6759 53.1736C22.7632 53.3619 22.8446 53.5545 22.9198 53.7512Z" fill="#283D44"/>
<path d="M22.9198 53.7512C26.0309 65.3625 16.3749 75.0873 6.73116 76.2907M22.9198 53.7512C23.0826 53.9818 23.2424 54.2047 23.3996 54.4202M22.9198 53.7512C22.8446 53.5545 22.7632 53.3619 22.6759 53.1736M6.73116 76.2907C7.4456 77.1032 8.48377 78.1037 8.79473 78.2165C24.3092 83.8447 37.7468 73.5701 34.6111 60.5012M6.73116 76.2907C-2.87794 65.363 1.0814 52.0106 10.4785 48.3003C11.19 48.0579 11.9124 47.8968 12.6334 47.8124M34.6111 60.5012C36.9108 60.3647 38.0348 60.1217 39.8252 59.4702C41.8714 61.5184 42.4478 62.4277 43.0548 65.3762C45.0883 61.3542 43.9077 54.8991 39.2115 51.033C35.7564 48.1887 31.2097 47.4657 27.6233 49.5387M34.6111 60.5012C29.4787 60.4944 27.2288 59.6686 23.3996 54.4202M23.3996 54.4202C24.4488 52.1215 25.9289 50.518 27.6233 49.5387M12.6334 47.8124C11.754 46.2208 11.3613 45.0968 10.8133 42.7202C8.78017 42.1251 7.29977 42.1571 4.0837 42.8762C6.33367 38.9792 12.5143 36.7741 17.8834 38.7192C22.3567 40.0668 25.2653 43.7403 24.8704 47.9493M12.6334 47.8124C16.8024 47.3247 20.9285 49.4035 22.6759 53.1736M22.6759 53.1736C24.0178 51.4232 24.7116 49.6429 24.8704 47.9493M24.8704 47.9493C25.731 45.6389 26.8372 44.466 28.9198 43.359C30.7523 42.6849 32.8169 45.609 31.4754 47.4325C29.3928 48.5396 29.1562 48.4682 27.6233 49.5387" stroke="#23383F" stroke-width="2"/>
<path d="M69.9219 42.7202C70.4699 45.0968 70.8625 46.2208 71.742 47.8124C75.9109 47.3247 80.0371 49.4035 81.7845 53.1736C83.1264 51.4232 83.8201 49.6429 83.979 47.9493C84.3739 43.7403 81.4652 40.0668 76.9919 38.7192C71.6228 36.7741 65.4422 38.9792 63.1923 42.8762C66.4083 42.1571 67.8887 42.1251 69.9219 42.7202Z" fill="#283D44"/>
<path d="M65.8397 76.2907C66.5542 77.1032 67.5923 78.1037 67.9033 78.2165C83.4177 83.8447 96.8554 73.5701 93.7197 60.5012C88.5873 60.4944 86.3373 59.6686 82.5081 54.4202C82.351 54.2047 82.1911 53.9818 82.0283 53.7512C85.1395 65.3625 75.4834 75.0873 65.8397 76.2907Z" fill="#283D44"/>
<path d="M93.7197 60.5012C96.0194 60.3647 97.1433 60.1217 98.9337 59.4702C100.98 61.5184 101.556 62.4277 102.163 65.3762C104.197 61.3542 103.016 54.8991 98.3201 51.033C94.865 48.1887 90.3182 47.4657 86.7318 49.5387C85.0374 50.518 83.5574 52.1215 82.5081 54.4202C86.3373 59.6686 88.5873 60.4944 93.7197 60.5012Z" fill="#283D44"/>
<path d="M69.587 48.3003C60.19 52.0106 56.2306 65.363 65.8397 76.2907C75.4834 75.0873 85.1395 65.3625 82.0283 53.7512C81.9532 53.5545 81.8718 53.3619 81.7845 53.1736C80.0371 49.4035 75.9109 47.3247 71.742 47.8124C71.0209 47.8968 70.2986 48.0579 69.587 48.3003Z" fill="#283D44"/>
<path d="M82.0283 53.7512C82.1911 53.9818 82.351 54.2047 82.5081 54.4202C83.5574 52.1215 85.0374 50.518 86.7318 49.5387C88.2648 48.4682 88.5014 48.5396 90.5839 47.4325C91.9254 45.609 89.8608 42.6849 88.0283 43.359C85.9458 44.466 84.8395 45.6389 83.979 47.9493C83.8201 49.6429 83.1264 51.4232 81.7845 53.1736C81.8718 53.3619 81.9532 53.5545 82.0283 53.7512Z" fill="#283D44"/>
<path d="M82.0283 53.7512C85.1395 65.3625 75.4834 75.0873 65.8397 76.2907M82.0283 53.7512C82.1911 53.9818 82.351 54.2047 82.5081 54.4202M82.0283 53.7512C81.9532 53.5545 81.8718 53.3619 81.7845 53.1736M65.8397 76.2907C66.5542 77.1032 67.5923 78.1037 67.9033 78.2165C83.4177 83.8447 96.8554 73.5701 93.7197 60.5012M65.8397 76.2907C56.2306 65.363 60.19 52.0106 69.587 48.3003C70.2986 48.0579 71.0209 47.8968 71.742 47.8124M93.7197 60.5012C96.0194 60.3647 97.1433 60.1217 98.9337 59.4702C100.98 61.5184 101.556 62.4277 102.163 65.3762C104.197 61.3542 103.016 54.8991 98.3201 51.033C94.865 48.1887 90.3182 47.4657 86.7318 49.5387M93.7197 60.5012C88.5873 60.4944 86.3373 59.6686 82.5081 54.4202M82.5081 54.4202C83.5574 52.1215 85.0374 50.518 86.7318 49.5387M71.742 47.8124C70.8625 46.2208 70.4699 45.0968 69.9219 42.7202C67.8887 42.1251 66.4083 42.1571 63.1923 42.8762C65.4422 38.9792 71.6228 36.7741 76.9919 38.7192C81.4652 40.0668 84.3739 43.7403 83.979 47.9493M71.742 47.8124C75.9109 47.3247 80.0371 49.4035 81.7845 53.1736M81.7845 53.1736C83.1264 51.4232 83.8201 49.6429 83.979 47.9493M83.979 47.9493C84.8395 45.6389 85.9458 44.466 88.0283 43.359C89.8608 42.6849 91.9254 45.609 90.5839 47.4325C88.5014 48.5396 88.2648 48.4682 86.7318 49.5387" stroke="#23383F" stroke-width="2"/>
<path d="M39.6742 5.72021C40.2223 8.09682 40.6149 9.22084 41.4943 10.8124C45.6633 10.3247 49.7894 12.4035 51.5368 16.1736C52.8787 14.4232 53.5725 12.6429 53.7313 10.9493C54.1262 6.74029 51.2176 3.06678 46.7443 1.71923C41.3752 -0.225942 35.1946 1.97919 32.9446 5.87625C36.1607 5.15713 37.6411 5.12511 39.6742 5.72021Z" fill="#283D44"/>
<path d="M35.5921 39.2907C36.3065 40.1032 37.3447 41.1037 37.6556 41.2165C53.1701 46.8447 66.6077 36.5701 63.472 23.5012C58.3396 23.4944 56.0897 22.6686 52.2605 17.4202C52.1033 17.2047 51.9435 16.9818 51.7807 16.7512C54.8918 28.3625 45.2358 38.0873 35.5921 39.2907Z" fill="#283D44"/>
<path d="M63.472 23.5012C65.7717 23.3647 66.8957 23.1217 68.6861 22.4702C70.7323 24.5184 71.3087 25.4277 71.9157 28.3762C73.9492 24.3542 72.7686 17.8991 68.0724 14.033C64.6173 11.1887 60.0706 10.4657 56.4842 12.5387C54.7898 13.518 53.3097 15.1215 52.2605 17.4202C56.0897 22.6686 58.3396 23.4944 63.472 23.5012Z" fill="#283D44"/>
<path d="M39.3394 11.3003C29.9423 15.0106 25.983 28.363 35.5921 39.2907C45.2358 38.0873 54.8918 28.3625 51.7807 16.7512C51.7055 16.5545 51.6241 16.3619 51.5368 16.1736C49.7894 12.4035 45.6633 10.3247 41.4943 10.8124C40.7733 10.8968 40.0509 11.0579 39.3394 11.3003Z" fill="#283D44"/>
<path d="M51.7807 16.7512C51.9435 16.9818 52.1033 17.2047 52.2605 17.4202C53.3097 15.1215 54.7898 13.518 56.4842 12.5387C58.0171 11.4682 58.2537 11.5396 60.3363 10.4325C61.6778 8.60896 59.6132 5.68491 57.7807 6.35896C55.6981 7.46601 54.5919 8.63887 53.7313 10.9493C53.5725 12.6429 52.8787 14.4232 51.5368 16.1736C51.6241 16.3619 51.7055 16.5545 51.7807 16.7512Z" fill="#283D44"/>
<path d="M51.7807 16.7512C54.8918 28.3625 45.2358 38.0873 35.5921 39.2907M51.7807 16.7512C51.9435 16.9818 52.1033 17.2047 52.2605 17.4202M51.7807 16.7512C51.7055 16.5545 51.6241 16.3619 51.5368 16.1736M35.5921 39.2907C36.3065 40.1032 37.3447 41.1037 37.6556 41.2165C53.1701 46.8447 66.6077 36.5701 63.472 23.5012M35.5921 39.2907C25.983 28.363 29.9423 15.0106 39.3394 11.3003C40.0509 11.0579 40.7733 10.8968 41.4943 10.8124M63.472 23.5012C65.7717 23.3647 66.8957 23.1217 68.6861 22.4702C70.7323 24.5184 71.3087 25.4277 71.9157 28.3762C73.9492 24.3542 72.7686 17.8991 68.0724 14.033C64.6173 11.1887 60.0706 10.4657 56.4842 12.5387M63.472 23.5012C58.3396 23.4944 56.0897 22.6686 52.2605 17.4202M52.2605 17.4202C53.3097 15.1215 54.7898 13.518 56.4842 12.5387M41.4943 10.8124C40.6149 9.22084 40.2223 8.09682 39.6742 5.72021C37.6411 5.12511 36.1607 5.15713 32.9446 5.87625C35.1946 1.97919 41.3752 -0.225942 46.7443 1.71923C51.2176 3.06678 54.1262 6.74029 53.7313 10.9493M41.4943 10.8124C45.6633 10.3247 49.7894 12.4035 51.5368 16.1736M51.5368 16.1736C52.8787 14.4232 53.5725 12.6429 53.7313 10.9493M53.7313 10.9493C54.5919 8.63887 55.6981 7.46601 57.7807 6.35896C59.6132 5.68491 61.6778 8.60896 60.3363 10.4325C58.2537 11.5396 58.0171 11.4682 56.4842 12.5387" stroke="#23383F" stroke-width="2"/>
<path d="M98.4156 5.72021C98.9636 8.09682 99.3562 9.22084 100.236 10.8124C104.405 10.3247 108.531 12.4035 110.278 16.1736C111.62 14.4232 112.314 12.6429 112.473 10.9493C112.868 6.74029 109.959 3.06678 105.486 1.71923C100.117 -0.225942 93.9359 1.97919 91.6859 5.87625C94.902 5.15713 96.3824 5.12511 98.4156 5.72021Z" fill="#283D44"/>
<path d="M94.3334 39.2907C95.0478 40.1032 96.086 41.1037 96.397 41.2165C111.911 46.8447 125.349 36.5701 122.213 23.5012C117.081 23.4944 114.831 22.6686 111.002 17.4202C110.845 17.2047 110.685 16.9818 110.522 16.7512C113.633 28.3625 103.977 38.0873 94.3334 39.2907Z" fill="#283D44"/>
<path d="M122.213 23.5012C124.513 23.3647 125.637 23.1217 127.427 22.4702C129.474 24.5184 130.05 25.4277 130.657 28.3762C132.691 24.3542 131.51 17.8991 126.814 14.033C123.359 11.1887 118.812 10.4657 115.226 12.5387C113.531 13.518 112.051 15.1215 111.002 17.4202C114.831 22.6686 117.081 23.4944 122.213 23.5012Z" fill="#283D44"/>
<path d="M98.0807 11.3003C88.6836 15.0106 84.7243 28.363 94.3334 39.2907C103.977 38.0873 113.633 28.3625 110.522 16.7512C110.447 16.5545 110.365 16.3619 110.278 16.1736C108.531 12.4035 104.405 10.3247 100.236 10.8124C99.5146 10.8968 98.7923 11.0579 98.0807 11.3003Z" fill="#283D44"/>
<path d="M110.522 16.7512C110.685 16.9818 110.845 17.2047 111.002 17.4202C112.051 15.1215 113.531 13.518 115.226 12.5387C116.758 11.4682 116.995 11.5396 119.078 10.4325C120.419 8.60896 118.355 5.68491 116.522 6.35896C114.439 7.46601 113.333 8.63887 112.473 10.9493C112.314 12.6429 111.62 14.4232 110.278 16.1736C110.365 16.3619 110.447 16.5545 110.522 16.7512Z" fill="#283D44"/>
<path d="M110.522 16.7512C113.633 28.3625 103.977 38.0873 94.3334 39.2907M110.522 16.7512C110.685 16.9818 110.845 17.2047 111.002 17.4202M110.522 16.7512C110.447 16.5545 110.365 16.3619 110.278 16.1736M94.3334 39.2907C95.0478 40.1032 96.086 41.1037 96.397 41.2165C111.911 46.8447 125.349 36.5701 122.213 23.5012M94.3334 39.2907C84.7243 28.363 88.6836 15.0106 98.0807 11.3003C98.7923 11.0579 99.5146 10.8968 100.236 10.8124M122.213 23.5012C124.513 23.3647 125.637 23.1217 127.427 22.4702C129.474 24.5184 130.05 25.4277 130.657 28.3762C132.691 24.3542 131.51 17.8991 126.814 14.033C123.359 11.1887 118.812 10.4657 115.226 12.5387M122.213 23.5012C117.081 23.4944 114.831 22.6686 111.002 17.4202M111.002 17.4202C112.051 15.1215 113.531 13.518 115.226 12.5387M100.236 10.8124C99.3562 9.22084 98.9636 8.09682 98.4156 5.72021C96.3824 5.12511 94.902 5.15713 91.6859 5.87625C93.9359 1.97919 100.117 -0.225942 105.486 1.71923C109.959 3.06678 112.868 6.74029 112.473 10.9493M100.236 10.8124C104.405 10.3247 108.531 12.4035 110.278 16.1736M110.278 16.1736C111.62 14.4232 112.314 12.6429 112.473 10.9493M112.473 10.9493C113.333 8.63887 114.439 7.46601 116.522 6.35896C118.355 5.68491 120.419 8.60896 119.078 10.4325C116.995 11.5396 116.758 11.4682 115.226 12.5387" stroke="#23383F" stroke-width="2"/>
</svg>
