<svg width="95" height="86" viewBox="0 0 95 86" fill="none" xmlns="http://www.w3.org/2000/svg">
<path d="M45.5 27.2076C62.5 44.2077 55.5 70.7076 40 82.4357M45.5 27.2076C46.0126 27.4442 46.5123 27.6704 47 27.8863M45.5 27.2076C45.1731 26.942 44.8396 26.6898 44.5 26.4508M40 82.4357C42.0499 83.1285 44.8486 83.8233 45.5 83.7077C78 77.9416 91 46.7077 72.5 27.2076M40 82.4357C12.4289 73.1175 5.93424 46.0311 18.5002 30.2076C19.4902 29.0761 20.5802 28.0747 21.7447 27.2076M72.5 27.2076C76.3467 24.6714 78.0505 23.1265 80.5 20.2077C86.0923 21.7091 88 22.7077 92 27.2076C91.5 18.2077 83 8.2077 71 6.20771C62.1712 4.73626 53.573 8.03081 49.4341 15.2077M72.5 27.2076C63.6036 32.328 58.8807 33.1477 47 27.8863M47 27.8863C46.5187 22.8557 47.4787 18.5984 49.4341 15.2077M21.7447 27.2076C18.6299 25.3303 16.8258 23.7761 13.5 20.2077C9.38339 21.2101 6.85127 22.7459 2 27.2076C2 18.2077 10.5 8.20769 21.7447 6.20771C30.8402 4.06845 39.5517 7.5225 43.0768 15.2077M21.7447 27.2076C28.4779 22.1939 37.7033 21.6683 44.5 26.4508M44.5 26.4508C45.0738 22.0772 44.4952 18.2999 43.0768 15.2077M43.0768 15.2077C42.2568 10.3453 43 7.2076 45.5 3.2076C48 0.207581 54.5 3.2076 54 7.70758C51.5 11.7076 51.0188 11.8206 49.4341 15.2077" stroke="#001920" stroke-width="4"/>
</svg>
