<svg width="90" height="82" viewBox="0 0 90 82" fill="none" xmlns="http://www.w3.org/2000/svg">
<path d="M11.5 18.2077C14.8258 21.7761 16.6299 23.3303 19.7447 25.2076C26.4779 20.1939 35.7033 19.6683 42.5 24.4508C43.0738 20.0772 42.4952 16.2999 41.0768 13.2077C37.5517 5.5225 28.8402 2.06845 19.7447 4.20771C8.5 6.20769 0 16.2077 0 25.2076C4.85127 20.7459 7.38339 19.2101 11.5 18.2077Z" fill="url(#paint0_linear_3_188)"/>
<path d="M38 80.4357C40.0499 81.1285 42.8486 81.8233 43.5 81.7077C76 75.9416 89 44.7077 70.5 25.2076C61.6036 30.328 56.8807 31.1477 45 25.8863C44.5123 25.6704 44.0126 25.4442 43.5 25.2076C60.5 42.2077 53.5 68.7076 38 80.4357Z" fill="url(#paint1_radial_3_188)"/>
<path d="M70.5 25.2076C74.3467 22.6714 76.0505 21.1265 78.5 18.2077C84.0923 19.7091 86 20.7077 90 25.2076C89.5 16.2077 81 6.2077 69 4.20771C60.1712 2.73626 51.573 6.03081 47.4341 13.2077C45.4787 16.5984 44.5187 20.8557 45 25.8863C56.8807 31.1477 61.6036 30.328 70.5 25.2076Z" fill="url(#paint2_linear_3_188)"/>
<path d="M16.5002 28.2076C3.93424 44.0311 10.4289 71.1175 38 80.4357C53.5 68.7076 60.5 42.2077 43.5 25.2076C43.1731 24.942 42.8396 24.6898 42.5 24.4508C35.7033 19.6683 26.4779 20.1939 19.7447 25.2076C18.5802 26.0747 17.4902 27.0761 16.5002 28.2076Z" fill="url(#paint3_radial_3_188)"/>
<path d="M43.5 25.2076C44.0126 25.4442 44.5123 25.6704 45 25.8863C44.5187 20.8557 45.4787 16.5984 47.4341 13.2077C49.0188 9.82063 49.5 9.70758 52 5.70758C52.5 1.2076 46 -1.79242 43.5 1.2076C41 5.2076 40.2568 8.34531 41.0768 13.2077C42.4952 16.2999 43.0738 20.0772 42.5 24.4508C42.8396 24.6898 43.1731 24.942 43.5 25.2076Z" fill="url(#paint4_radial_3_188)"/>
<defs>
<linearGradient id="paint0_linear_3_188" x1="41" y1="20.2076" x2="2" y2="20.2076" gradientUnits="userSpaceOnUse">
<stop stop-color="#187238"/>
<stop offset="1" stop-color="#79AA3C"/>
</linearGradient>
<radialGradient id="paint1_radial_3_188" cx="0" cy="0" r="1" gradientUnits="userSpaceOnUse" gradientTransform="translate(45.5 74.7076) rotate(-66.3369) scale(48.585 53.5075)">
<stop offset="0.105039" stop-color="#C32731"/>
<stop offset="0.690039" stop-color="#FD7752"/>
<stop offset="1" stop-color="#FBD099"/>
</radialGradient>
<linearGradient id="paint2_linear_3_188" x1="45.5" y1="24.7076" x2="84" y2="14.2076" gradientUnits="userSpaceOnUse">
<stop stop-color="#187238"/>
<stop offset="1" stop-color="#79AA3C"/>
</linearGradient>
<radialGradient id="paint3_radial_3_188" cx="0" cy="0" r="1" gradientUnits="userSpaceOnUse" gradientTransform="translate(31.5 75.7076) rotate(-62.0378) scale(45.853 50.4987)">
<stop offset="0.15748" stop-color="#C32731"/>
<stop offset="0.72748" stop-color="#FD7752"/>
<stop offset="1" stop-color="#FBD099"/>
</radialGradient>
<radialGradient id="paint4_radial_3_188" cx="0" cy="0" r="1" gradientUnits="userSpaceOnUse" gradientTransform="translate(50 -0.792419) rotate(109.983) scale(17.5571 19.3359)">
<stop offset="0.37238" stop-color="#F7A26C"/>
<stop offset="0.37248" stop-color="#9A4D2F"/>
<stop offset="1" stop-color="#4C2D26"/>
</radialGradient>
</defs>
</svg>
